<?xml version="1.0" standalone="no"?>
<!DOCTYPE svg PUBLIC "-//W3C//DTD SVG 20010904//EN"
 "http://www.w3.org/TR/2001/REC-SVG-20010904/DTD/svg10.dtd">
<svg version="1.0" xmlns="http://www.w3.org/2000/svg"
 width="411.000000pt" height="607.000000pt" viewBox="0 0 411.000000 607.000000"
 preserveAspectRatio="xMidYMid meet">

<g transform="translate(0.000000,607.000000) scale(0.100000,-0.100000)"
fill="#000000" stroke="none">
<path d="M1019 6043 c-309 -2 -409 -6 -417 -16 -12 -14 -28 -56 -83 -212 -21
-60 -44 -121 -52 -135 -8 -14 -20 -41 -26 -61 -20 -62 -112 -158 -196 -204
-86 -47 -179 -132 -190 -173 -3 -15 -9 -722 -12 -1572 -6 -1618 -2 -1840 36
-1990 26 -109 69 -227 97 -271 13 -21 24 -42 24 -45 0 -12 110 -193 121 -200
6 -3 23 -24 39 -46 39 -53 170 -165 250 -213 36 -21 76 -49 90 -61 26 -24 89
-53 180 -85 30 -11 71 -30 90 -42 30 -19 103 -46 299 -108 18 -6 49 -22 68
-34 18 -13 57 -31 86 -41 81 -26 175 -71 208 -99 17 -14 34 -25 39 -25 14 0
130 -72 130 -80 0 -5 23 -26 50 -48 28 -22 70 -67 95 -100 24 -34 52 -65 62
-71 11 -5 25 -21 33 -35 17 -32 45 -34 61 -3 7 12 27 40 46 63 18 23 33 46 33
51 0 6 10 21 23 35 12 13 42 46 66 73 24 26 76 69 115 95 39 26 77 55 85 64
15 18 96 61 156 83 22 7 56 25 75 38 20 14 98 45 174 69 76 25 159 58 184 73
26 15 85 43 132 61 47 18 102 46 122 62 20 17 39 30 41 30 15 0 140 83 181
121 79 70 184 180 213 224 15 22 40 57 56 77 16 21 40 59 54 85 152 285 183
391 203 707 14 219 13 901 -1 1221 -6 152 -9 590 -7 1115 l3 865 -23 43 c-20
37 -34 48 -105 81 -72 33 -89 46 -133 102 -28 35 -59 80 -69 99 -10 19 -32 55
-48 80 -33 47 -54 86 -122 220 -23 47 -49 90 -56 97 -29 23 -363 33 -1209 37
-476 1 -1048 1 -1271 -1z m873 -548 c11 -27 26 -66 33 -85 38 -103 79 -190 89
-190 12 0 39 78 53 150 3 19 12 46 20 60 7 14 13 30 13 37 0 7 8 28 17 48 l17
35 112 0 c77 0 115 -4 121 -12 10 -12 25 -267 39 -656 5 -125 3 -176 -5 -186
-13 -16 -174 -20 -202 -5 -13 7 -18 33 -23 141 -8 166 -15 210 -29 205 -7 -2
-17 -21 -22 -43 -13 -48 -65 -184 -78 -201 -5 -7 -15 -13 -21 -13 -12 0 -94
165 -116 234 -12 36 -14 38 -26 21 -8 -11 -12 -33 -9 -54 12 -95 15 -240 6
-264 -10 -27 -11 -27 -110 -27 -64 0 -102 4 -107 11 -14 23 -51 806 -40 835 5
12 28 14 127 12 l120 -3 21 -50z m-881 -152 c56 -47 88 -84 83 -96 -2 -7 -49
-35 -104 -62 -55 -27 -102 -57 -105 -66 -8 -25 94 -159 122 -159 12 0 25 5 29
11 10 17 149 79 177 79 31 0 86 -37 106 -72 23 -37 103 -152 111 -158 4 -3 23
-29 43 -57 45 -65 48 -101 10 -143 -28 -29 -289 -170 -318 -170 -20 0 -120 90
-120 108 0 9 42 37 100 67 67 35 100 57 99 68 -2 26 -96 147 -115 147 -9 0
-55 -18 -102 -40 -47 -22 -97 -40 -112 -40 -35 0 -75 29 -111 82 -16 23 -51
72 -78 108 -27 36 -65 89 -83 118 -31 48 -33 57 -23 82 6 15 21 37 33 48 28
25 296 161 319 162 10 0 27 -8 39 -17z m2231 -66 c53 -26 99 -51 102 -55 5 -9
-5 -57 -23 -107 -10 -28 -49 -154 -84 -270 -8 -27 -30 -102 -50 -165 -19 -63
-45 -149 -57 -190 -12 -41 -23 -81 -25 -87 -3 -7 -11 -13 -20 -13 -17 0 -192
86 -199 98 -3 4 2 22 11 40 21 44 12 59 -52 87 -71 32 -80 31 -106 -5 -12 -16
-28 -31 -36 -34 -7 -3 -54 13 -104 37 -77 35 -89 45 -87 64 2 12 105 128 248
275 321 333 369 380 378 376 4 -2 51 -25 104 -51z m-989 -713 c40 -8 90 -22
112 -31 53 -21 107 -44 125 -54 8 -5 38 -21 65 -35 104 -55 306 -243 375 -349
73 -113 150 -247 150 -262 0 -10 9 -31 20 -48 11 -16 20 -39 20 -50 0 -12 5
-26 11 -32 10 -10 36 -99 68 -228 59 -239 49 -635 -20 -847 -16 -48 -29 -95
-29 -105 0 -10 -6 -27 -13 -38 -8 -11 -24 -49 -37 -85 -24 -66 -72 -162 -94
-190 -7 -8 -17 -26 -23 -40 -6 -14 -41 -62 -77 -107 -252 -312 -527 -457 -866
-458 -129 0 -245 17 -306 46 -23 10 -47 19 -54 19 -20 0 -149 68 -225 118
-116 78 -287 259 -346 366 -12 22 -28 46 -35 54 -20 20 -121 234 -134 284 -6
24 -18 61 -26 83 -51 138 -77 364 -70 595 4 96 11 193 16 215 5 22 18 80 30
130 26 117 74 254 116 335 19 35 34 68 34 73 0 5 15 30 33 56 19 25 37 53 40
61 35 80 213 267 337 354 67 47 215 124 270 140 30 9 78 22 105 30 71 21 334
21 428 0z m1055 -2643 c28 -15 135 -58 162 -66 14 -4 43 -15 65 -25 22 -11 61
-28 88 -39 26 -11 47 -26 47 -34 0 -25 -49 -127 -64 -133 -8 -3 -39 6 -70 20
-31 14 -59 26 -63 26 -3 0 -31 11 -62 24 -31 13 -81 34 -111 45 -79 31 -98 42
-104 58 -3 7 9 40 26 73 32 61 48 71 86 51z m-2279 -206 c71 -72 126 -136 130
-152 7 -25 13 -29 62 -34 48 -5 84 -16 154 -49 11 -5 45 -19 75 -30 30 -12 65
-31 77 -42 17 -16 38 -21 90 -23 86 -3 121 -13 127 -33 2 -10 12 -52 21 -95
21 -99 36 -98 78 1 16 40 37 77 46 81 9 5 50 4 91 0 81 -10 131 -7 283 17 54
9 114 13 132 10 24 -5 42 -2 58 9 29 19 115 42 139 37 10 -2 21 -16 24 -30 3
-15 12 -45 19 -67 7 -22 23 -76 35 -120 12 -44 25 -87 30 -95 10 -21 54 -24
106 -6 41 14 45 14 54 -3 5 -10 6 -31 1 -47 -6 -23 -16 -32 -52 -42 -24 -7
-78 -24 -120 -37 -42 -14 -86 -25 -98 -25 -24 0 -47 47 -57 114 -4 23 -12 50
-19 61 -7 11 -16 35 -19 53 -4 17 -12 32 -17 32 -12 0 -11 -30 5 -120 17 -96
12 -132 -22 -152 -16 -10 -89 -24 -175 -34 -143 -17 -149 -17 -182 0 -31 17
-34 24 -40 75 -3 31 -11 88 -17 126 -6 39 -12 86 -13 105 -3 49 -3 50 -19 50
-7 0 -19 -14 -26 -30 -7 -17 -25 -48 -40 -68 -49 -69 -100 -169 -100 -198 0
-51 -11 -58 -82 -51 -99 9 -101 10 -93 76 5 49 1 72 -34 180 -23 69 -41 133
-41 143 0 10 -7 21 -17 25 -20 8 -53 -30 -53 -61 0 -12 -4 -26 -8 -31 -4 -6
-18 -37 -31 -70 -50 -129 -70 -165 -93 -166 -54 -4 -96 5 -153 31 -33 15 -71
31 -85 35 -47 14 -112 58 -121 83 -10 25 5 68 88 267 14 33 27 66 30 73 11 25
-21 11 -51 -25 -17 -20 -46 -42 -63 -50 -20 -8 -33 -20 -33 -32 0 -10 -24 -43
-54 -74 -60 -64 -85 -70 -132 -34 -54 41 -244 242 -244 258 0 18 296 309 314
309 7 0 67 -56 135 -125z m2256 -90 c68 -63 128 -115 133 -115 5 0 28 20 51
45 49 53 70 56 95 14 l18 -30 -30 -32 c-17 -18 -63 -67 -103 -109 -40 -43 -78
-78 -84 -78 -7 0 -26 15 -43 33 -41 43 -90 88 -194 181 -49 43 -88 83 -88 89
0 16 95 117 110 117 6 0 67 -52 135 -115z m-246 -72 c25 -21 79 -71 121 -112
41 -40 94 -89 118 -108 58 -49 56 -71 -12 -108 -51 -27 -56 -28 -94 -16 -39
13 -43 13 -77 -13 -26 -20 -34 -33 -30 -46 4 -11 -2 -26 -15 -37 -29 -28 -109
-66 -124 -60 -7 3 -16 27 -19 54 -4 26 -16 95 -27 153 -36 189 -43 237 -37
253 6 16 111 75 136 76 8 1 35 -16 60 -36z"/>
<path d="M2998 4906 c-64 -69 -118 -136 -118 -146 0 -4 15 -14 33 -21 17 -7
35 -14 39 -17 7 -3 27 36 63 123 9 22 23 53 32 68 27 50 0 46 -49 -7z"/>
<path d="M1945 4265 c-132 -19 -230 -63 -329 -147 -64 -55 -159 -157 -197
-212 -66 -95 -142 -259 -159 -341 -7 -33 -16 -67 -21 -76 -12 -24 -48 -246
-51 -316 -1 -40 2 -67 10 -75 9 -9 55 -13 162 -13 147 0 149 0 177 27 28 26
28 26 123 17 52 -5 106 -14 119 -20 16 -7 27 -6 37 2 18 15 8 31 -18 27 -12
-2 -23 2 -25 8 -5 14 39 26 61 18 20 -8 32 37 17 64 -8 15 -6 23 9 37 26 23
25 41 -1 48 -16 4 -19 11 -14 26 5 16 1 23 -19 31 -31 11 -35 40 -6 40 24 0
26 17 4 42 -16 17 -15 18 42 13 32 -2 67 -4 77 -5 13 0 17 -9 17 -41 0 -34 3
-40 17 -35 9 4 19 2 23 -4 9 -15 60 -1 60 16 0 8 9 14 20 14 11 0 20 5 20 10
0 6 7 10 15 10 8 0 15 -4 15 -10 0 -5 -5 -10 -11 -10 -6 0 -23 -11 -37 -24
-76 -69 -126 -107 -148 -112 -27 -7 -47 -44 -38 -68 5 -14 190 -145 249 -177
60 -33 64 -46 67 -250 2 -146 0 -189 -11 -202 -11 -14 -35 -17 -143 -17 -74 0
-138 5 -150 11 -19 10 -20 18 -17 155 3 120 1 147 -11 154 -18 12 -200 13
-217 2 -9 -6 -12 -64 -10 -227 3 -249 10 -277 68 -289 51 -10 645 -7 673 4 51
19 54 42 57 361 3 259 1 299 -14 333 -24 55 -22 81 8 94 35 16 43 15 50 -8 5
-17 9 -18 26 -7 17 10 23 9 40 -11 27 -34 98 -52 205 -52 117 0 124 6 124 100
0 135 -63 410 -124 540 -78 166 -217 341 -330 417 -23 15 -51 36 -63 46 -39
34 -188 81 -283 90 -30 2 -95 -1 -145 -8z m128 -657 c-1 -22 3 -27 25 -30 33
-4 36 -32 5 -36 -24 -4 -93 45 -93 65 0 15 30 33 50 30 9 -2 14 -13 13 -29z
m107 -4 c0 -14 -6 -24 -14 -24 -22 0 -28 17 -16 40 14 26 30 17 30 -16z m-230
-9 c0 -8 -7 -15 -15 -15 -16 0 -20 12 -8 23 11 12 23 8 23 -8z m14 -56 c8 -12
19 -18 25 -15 15 10 31 -26 20 -46 -12 -22 -49 -24 -49 -3 0 8 -9 19 -20 25
-27 14 -26 60 1 60 4 0 15 -9 23 -21z m222 -36 c-2 -41 -6 -48 -24 -51 -20 -3
-22 1 -21 40 2 52 5 58 28 58 16 0 18 -8 17 -47z m-346 -210 c0 -19 -31 -16
-46 5 -21 27 -17 31 16 19 17 -6 30 -17 30 -24z m586 -8 c-18 -27 -15 -30 29
-37 11 -2 21 -11 23 -21 3 -12 -1 -15 -14 -10 -10 4 -20 0 -26 -10 -13 -24
-38 -9 -38 22 0 23 -4 26 -27 25 -15 0 -29 -6 -31 -12 -2 -7 -10 -12 -17 -12
-8 0 -18 -7 -23 -16 -7 -12 -14 -14 -27 -7 -15 9 -14 12 10 31 15 12 34 22 42
22 8 0 28 11 45 25 16 14 39 25 50 25 19 0 20 -1 4 -25z m-632 -50 c22 -34 21
-36 -16 -18 -44 21 -45 23 -28 33 22 14 26 13 44 -15z m576 -38 c0 -13 5 -28
12 -35 9 -9 8 -12 -6 -12 -9 0 -26 4 -36 10 -15 8 -16 13 -7 35 15 31 37 33
37 2z m170 -7 c0 -5 -11 -10 -25 -10 -14 0 -25 5 -25 10 0 6 11 10 25 10 14 0
25 -4 25 -10z"/>
<path d="M1877 3417 c-34 -28 -34 -47 -2 -47 18 0 25 -5 25 -20 0 -15 7 -20
25 -20 15 0 25 6 25 14 0 8 -11 17 -25 20 -28 7 -33 30 -9 44 13 7 13 10 1 20
-11 9 -20 7 -40 -11z"/>
<path d="M1860 3125 c7 -9 15 -13 17 -11 7 7 -7 26 -19 26 -6 0 -6 -6 2 -15z"/>
<path d="M911 1634 c-38 -32 -39 -56 -4 -79 24 -16 29 -16 52 -2 14 8 31 26
38 38 10 20 9 27 -9 46 -27 29 -40 29 -77 -3z"/>
<path d="M775 1500 l-29 -30 21 -28 c28 -38 53 -38 88 -2 l29 30 -29 30 c-36
37 -44 37 -80 0z"/>
<path d="M1312 1392 c-22 -19 -102 -209 -102 -240 0 -25 56 -48 75 -32 7 6 25
45 40 88 15 42 34 86 41 97 23 33 18 80 -10 93 -20 9 -29 8 -44 -6z"/>
<path d="M2217 1266 c-8 -8 -13 -27 -11 -43 2 -15 8 -74 14 -131 5 -56 12
-107 15 -112 9 -15 61 -12 74 4 17 21 -6 267 -27 284 -21 16 -47 15 -65 -2z"/>
<path d="M3005 1371 c-7 -12 23 -93 37 -102 15 -9 48 7 48 24 0 17 -78 88 -85
78z"/>
</g>
</svg>
